<svg xmlns="http://www.w3.org/2000/svg" width="40.999" height="34.873" viewBox="0 0 40.999 34.873"><defs><style>.a{fill:#d4d4d4;}</style></defs><g transform="translate(0 -9.567)"><path class="a" d="M40.719,24.408,15.735,9.984a3.127,3.127,0,0,0-4.265,1.143L8.594,16.108,6.679,19.424a3.127,3.127,0,0,0,1.144,4.266l8.566,4.945-1.332,2.272a2.01,2.01,0,0,1-1.727.989h-5V28.085a.561.561,0,0,0-.561-.561H4.725V26.8a2.485,2.485,0,0,0-2.482-2.482H.561A.56.56,0,0,0,0,24.88v19a.56.56,0,0,0,.561.561H2.242a2.485,2.485,0,0,0,2.482-2.482V40.177H7.768a.561.561,0,0,0,.561-.561V36.862h5a6.994,6.994,0,0,0,6.01-3.442l1.349-2.3,4.7,2.711a3.107,3.107,0,0,0,1.556.42,3.139,3.139,0,0,0,.814-.108,3.1,3.1,0,0,0,1.357-.765,4.67,4.67,0,0,0,1.96.434,4.745,4.745,0,0,0,1.229-.163,4.681,4.681,0,0,0,2.553-1.73L36,32.58a.56.56,0,0,0,.766-.205l4.158-7.2A.561.561,0,0,0,40.719,24.408ZM3.6,41.958a1.363,1.363,0,0,1-1.361,1.361H1.121V25.44H2.242A1.363,1.363,0,0,1,3.6,26.8Zm3.6-2.9H4.725V28.646H7.207Zm11.165-6.2a5.867,5.867,0,0,1-5.042,2.888h-5V33.018h5a3.135,3.135,0,0,0,2.694-1.543L17.361,29.2l2.358,1.361Zm7.573.006L8.383,22.72a2,2,0,0,1-.733-2.735l1.634-2.831,16.095,9.292L30.313,29.3l-1.634,2.832,0,0a1.978,1.978,0,0,1-.141.208v0A2,2,0,0,1,25.945,32.859Zm6.066-.294a3.573,3.573,0,0,1-2.222-.117l1.5-2.592,2.592,1.5a3.573,3.573,0,0,1-1.868,1.213Zm4.066-1.236-3.625-2.093L31.358,28.6,18.983,21.459,9.845,16.183l2.6-4.5a2,2,0,0,1,2.735-.732L39.673,25.1Z" transform="translate(0)"/><path class="a" d="M102.867,59.457a2.143,2.143,0,0,0,1.075.29,2.157,2.157,0,1,0-1.075-.29Zm.182-2.384a1.028,1.028,0,0,1,.628-.48,1.036,1.036,0,1,1-.628.482Z" transform="translate(-69.185 -31.176)"/><path class="a" d="M33.969,44.482l-4.593-2.652a.561.561,0,1,0-.561.971l4.595,2.652a.561.561,0,0,0,.559-.971Z" transform="translate(-19.395 -21.878)"/></g></svg>